<svg id="visual" viewBox="0 0 900 450" width="900" height="450" xmlns="http://www.w3.org/2000/svg" xmlns:xlink="http://www.w3.org/1999/xlink" version="1.1"><path d="M0 73L18.8 71.5C37.7 70 75.3 67 112.8 76C150.3 85 187.7 106 225.2 120.3C262.7 134.7 300.3 142.3 337.8 144.7C375.3 147 412.7 144 450.2 144C487.7 144 525.3 147 562.8 137.2C600.3 127.3 637.7 104.7 675.2 90.3C712.7 76 750.3 70 787.8 70.8C825.3 71.7 862.7 79.3 881.3 83.2L900 87L900 0L881.3 0C862.7 0 825.3 0 787.8 0C750.3 0 712.7 0 675.2 0C637.7 0 600.3 0 562.8 0C525.3 0 487.7 0 450.2 0C412.7 0 375.3 0 337.8 0C300.3 0 262.7 0 225.2 0C187.7 0 150.3 0 112.8 0C75.3 0 37.7 0 18.8 0L0 0Z" fill="#72c3fa"></path><path d="M0 325L18.8 317.5C37.7 310 75.3 295 112.8 284.5C150.3 274 187.7 268 225.2 274C262.7 280 300.3 298 337.8 311.5C375.3 325 412.7 334 450.2 325.8C487.7 317.7 525.3 292.3 562.8 284.8C600.3 277.3 637.7 287.7 675.2 298.2C712.7 308.7 750.3 319.3 787.8 319.3C825.3 319.3 862.7 308.7 881.3 303.3L900 298L900 85L881.3 81.2C862.7 77.3 825.3 69.7 787.8 68.8C750.3 68 712.7 74 675.2 88.3C637.7 102.7 600.3 125.3 562.8 135.2C525.3 145 487.7 142 450.2 142C412.7 142 375.3 145 337.8 142.7C300.3 140.3 262.7 132.7 225.2 118.3C187.7 104 150.3 83 112.8 74C75.3 65 37.7 68 18.8 69.5L0 71Z" fill="#0aa6f9"></path><path d="M0 451L18.8 451C37.7 451 75.3 451 112.8 451C150.3 451 187.7 451 225.2 451C262.7 451 300.3 451 337.8 451C375.3 451 412.7 451 450.2 451C487.7 451 525.3 451 562.8 451C600.3 451 637.7 451 675.2 451C712.7 451 750.3 451 787.8 451C825.3 451 862.7 451 881.3 451L900 451L900 296L881.3 301.3C862.7 306.7 825.3 317.3 787.8 317.3C750.3 317.3 712.7 306.7 675.2 296.2C637.7 285.7 600.3 275.3 562.8 282.8C525.3 290.3 487.7 315.7 450.2 323.8C412.7 332 375.3 323 337.8 309.5C300.3 296 262.7 278 225.2 272C187.7 266 150.3 272 112.8 282.5C75.3 293 37.7 308 18.8 315.5L0 323Z" fill="#007ab6"></path></svg>