<svg width="100%" height="100%" id="svg" viewBox="0 0 1440 590" xmlns="http://www.w3.org/2000/svg" class="transition duration-300 ease-in-out delay-150"><path d="M 0,600 L 0,150 C 66.01913875598083,133.0909090909091 132.03827751196167,116.18181818181819 246,130 C 359.96172248803833,143.8181818181818 521.8660287081341,188.36363636363637 624,175 C 726.1339712918659,161.63636363636363 768.4976076555023,90.36363636363637 841,100 C 913.5023923444977,109.63636363636363 1016.1435406698565,200.1818181818182 1121,222 C 1225.8564593301435,243.8181818181818 1332.9282296650717,196.9090909090909 1440,150 L 1440,600 L 0,600 Z" stroke="none" stroke-width="0" fill="#0aa6f9" fill-opacity="0.53" class="transition-all duration-300 ease-in-out delay-150 path-0"></path><path d="M 0,600 L 0,350 C 93.19617224880383,345.6937799043062 186.39234449760767,341.3875598086124 284,329 C 381.60765550239233,316.6124401913876 483.62679425837325,296.14354066985646 568,306 C 652.3732057416267,315.85645933014354 719.1004784688994,356.0382775119618 827,381 C 934.8995215311006,405.9617224880382 1083.9712918660287,415.70334928229664 1193,408 C 1302.0287081339713,400.29665071770336 1371.0143540669856,375.1483253588517 1440,350 L 1440,600 L 0,600 Z" stroke="none" stroke-width="0" fill="#0aa6f9" fill-opacity="1" class="transition-all duration-300 ease-in-out delay-150 path-1"></path></svg>