<?xml version="1.0" standalone="no"?>
<svg xmlns:xlink="http://www.w3.org/1999/xlink" id="wave" style="transform:rotate(180deg); transition: 0.3s" viewBox="0 0 1440 490" version="1.1" xmlns="http://www.w3.org/2000/svg"><defs><linearGradient id="sw-gradient-0" x1="0" x2="0" y1="1" y2="0"><stop stop-color="rgba(16, 123, 200, 1)" offset="0%"/><stop stop-color="rgba(255, 255, 255, 1)" offset="100%"/></linearGradient></defs><path style="transform:translate(0, 0px); opacity:1" fill="url(#sw-gradient-0)" d="M0,196L26.7,187.8C53.3,180,107,163,160,155.2C213.3,147,267,147,320,196C373.3,245,427,343,480,359.3C533.3,376,587,310,640,294C693.3,278,747,310,800,334.8C853.3,359,907,376,960,334.8C1013.3,294,1067,196,1120,187.8C1173.3,180,1227,261,1280,302.2C1333.3,343,1387,343,1440,318.5C1493.3,294,1547,245,1600,196C1653.3,147,1707,98,1760,138.8C1813.3,180,1867,310,1920,351.2C1973.3,392,2027,343,2080,334.8C2133.3,327,2187,359,2240,351.2C2293.3,343,2347,294,2400,269.5C2453.3,245,2507,245,2560,228.7C2613.3,212,2667,180,2720,196C2773.3,212,2827,278,2880,302.2C2933.3,327,2987,310,3040,285.8C3093.3,261,3147,229,3200,236.8C3253.3,245,3307,294,3360,302.2C3413.3,310,3467,278,3520,269.5C3573.3,261,3627,278,3680,277.7C3733.3,278,3787,261,3813,253.2L3840,245L3840,490L3813.3,490C3786.7,490,3733,490,3680,490C3626.7,490,3573,490,3520,490C3466.7,490,3413,490,3360,490C3306.7,490,3253,490,3200,490C3146.7,490,3093,490,3040,490C2986.7,490,2933,490,2880,490C2826.7,490,2773,490,2720,490C2666.7,490,2613,490,2560,490C2506.7,490,2453,490,2400,490C2346.7,490,2293,490,2240,490C2186.7,490,2133,490,2080,490C2026.7,490,1973,490,1920,490C1866.7,490,1813,490,1760,490C1706.7,490,1653,490,1600,490C1546.7,490,1493,490,1440,490C1386.7,490,1333,490,1280,490C1226.7,490,1173,490,1120,490C1066.7,490,1013,490,960,490C906.7,490,853,490,800,490C746.7,490,693,490,640,490C586.7,490,533,490,480,490C426.7,490,373,490,320,490C266.7,490,213,490,160,490C106.7,490,53,490,27,490L0,490Z"/></svg>